<svg id="svg" version="1.1" xmlns="http://www.w3.org/2000/svg" xmlns:xlink="http://www.w3.org/1999/xlink" width="400" height="400" viewBox="0, 0, 400,400"><g id="svgg"><path id="path0" d="M185.800 58.666 C 155.460 60.516,133.500 63.916,103.200 71.454 C 84.699 76.056,79.161 81.369,77.404 96.200 C 73.637 127.998,74.612 166.585,79.823 192.000 C 92.640 254.509,136.221 309.063,195.777 337.153 L 200.155 339.217 208.177 335.271 C 275.053 302.372,316.236 242.370,324.084 166.400 C 325.636 151.370,324.179 100.987,321.938 92.200 C 318.852 80.100,313.153 75.497,296.000 71.247 C 256.525 61.468,215.904 56.831,185.800 58.666 M341.423 74.600 C 344.352 80.521,345.765 85.293,346.815 92.800 C 347.491 97.639,347.515 97.710,347.551 95.000 C 347.622 89.584,345.045 80.264,341.834 74.327 C 338.888 68.879,338.667 69.026,341.423 74.600 M205.591 88.700 C 242.591 126.170,258.652 179.786,245.335 221.372 C 239.728 238.879,230.567 253.181,215.145 268.500 L 208.400 275.201 208.400 287.600 L 208.400 300.000 200.000 300.000 L 191.600 300.000 191.600 287.649 L 191.600 275.297 184.257 267.949 C 171.947 255.629,164.387 245.048,158.568 231.994 C 140.830 192.207,150.998 140.646,184.753 99.200 C 188.968 94.024,199.123 83.600,199.949 83.600 C 200.282 83.600,202.822 85.895,205.591 88.700 M347.701 99.800 C 347.705 100.680,347.787 100.993,347.883 100.495 C 347.979 99.998,347.975 99.278,347.875 98.895 C 347.775 98.513,347.696 98.920,347.701 99.800 " stroke="none" fill="#5c443b" fill-rule="evenodd"></path><path id="path1" d="M177.800 34.228 C 148.620 36.138,114.187 42.016,89.606 49.283 C 72.468 54.350,59.606 66.887,55.220 82.800 C 51.371 96.765,49.098 147.607,51.322 170.000 C 58.282 240.082,91.433 297.302,149.000 338.593 C 162.676 348.402,182.960 359.784,195.687 364.790 L 199.974 366.476 201.887 365.774 C 205.041 364.615,215.162 360.022,218.800 358.097 C 227.301 353.601,229.274 352.518,233.400 350.084 C 299.931 310.849,340.943 246.970,348.632 170.600 C 350.096 156.063,349.738 120.189,347.958 102.986 C 347.729 100.779,347.584 98.799,347.635 98.586 C 347.685 98.374,347.622 97.930,347.494 97.600 C 347.366 97.270,347.054 95.200,346.801 93.000 C 346.233 88.079,344.722 81.909,343.184 78.240 C 342.548 76.722,342.139 75.299,342.275 75.078 C 342.427 74.832,342.318 74.803,341.994 75.004 C 341.606 75.244,341.535 75.147,341.727 74.645 C 341.905 74.182,341.840 74.052,341.527 74.245 C 341.215 74.438,341.150 74.307,341.327 73.845 C 341.472 73.467,341.434 73.256,341.242 73.374 C 340.880 73.598,339.729 71.253,339.915 70.670 C 339.973 70.489,339.835 70.455,339.610 70.594 C 339.384 70.733,339.178 70.657,339.150 70.424 C 339.123 70.191,339.078 69.828,339.050 69.617 C 339.023 69.407,338.640 68.943,338.200 68.588 C 337.760 68.232,337.670 68.073,338.000 68.235 C 338.356 68.409,338.256 68.136,337.754 67.565 C 337.289 67.034,336.569 66.163,336.154 65.629 C 328.314 55.531,320.540 51.540,298.000 46.039 C 256.589 35.932,214.675 31.814,177.800 34.228 M219.821 59.010 C 245.177 60.695,268.581 64.455,296.000 71.247 C 313.153 75.497,318.852 80.100,321.938 92.200 C 324.179 100.987,325.636 151.370,324.084 166.400 C 316.236 242.370,275.053 302.372,208.177 335.271 L 200.155 339.217 195.777 337.153 C 136.221 309.063,92.640 254.509,79.823 192.000 C 74.612 166.585,73.637 127.998,77.404 96.200 C 79.161 81.369,84.699 76.056,103.200 71.454 C 133.500 63.916,155.460 60.516,185.800 58.666 C 192.184 58.277,211.767 58.475,219.821 59.010 M193.994 89.100 L 188.600 94.600 194.005 89.300 C 196.978 86.385,199.543 84.000,199.705 84.000 C 199.867 84.000,200.000 121.233,200.000 166.740 L 200.000 249.481 204.241 262.144 L 208.482 274.808 210.741 272.846 C 255.562 233.917,262.378 174.981,228.620 118.236 C 221.446 106.177,202.773 83.600,199.972 83.600 C 199.651 83.600,196.961 86.075,193.994 89.100 M187.375 96.100 L 186.200 97.400 187.500 96.225 C 188.712 95.130,188.984 94.800,188.675 94.800 C 188.606 94.800,188.021 95.385,187.375 96.100 M181.141 103.700 C 180.412 104.635,180.135 105.146,180.526 104.836 C 181.303 104.219,182.973 102.000,182.661 102.000 C 182.554 102.000,181.871 102.765,181.141 103.700 M176.400 110.200 C 175.719 111.190,175.252 112.000,175.362 112.000 C 175.472 112.000,176.119 111.190,176.800 110.200 C 177.481 109.210,177.948 108.400,177.838 108.400 C 177.728 108.400,177.081 109.210,176.400 110.200 M174.553 112.900 C 173.176 115.236,173.086 115.435,173.787 114.600 C 174.600 113.632,175.300 112.400,175.038 112.400 C 174.933 112.400,174.715 112.625,174.553 112.900 M162.465 134.617 C 161.795 136.088,161.923 136.402,162.647 135.065 C 162.986 134.440,163.188 133.854,163.096 133.763 C 163.005 133.671,162.721 134.056,162.465 134.617 M157.045 148.250 C 156.690 149.291,156.413 150.335,156.429 150.571 C 156.445 150.807,156.805 150.024,157.228 148.832 C 157.651 147.640,157.928 146.595,157.844 146.510 C 157.759 146.426,157.400 147.208,157.045 148.250 M153.022 162.622 C 152.872 163.425,152.828 164.162,152.926 164.260 C 153.024 164.357,153.227 163.781,153.378 162.978 C 153.528 162.175,153.572 161.438,153.474 161.340 C 153.376 161.243,153.173 161.819,153.022 162.622 M150.514 179.800 C 150.517 180.900,150.595 181.303,150.687 180.695 C 150.779 180.086,150.777 179.186,150.682 178.695 C 150.587 178.203,150.511 178.700,150.514 179.800 M150.170 191.000 C 150.171 195.840,150.229 197.765,150.299 195.278 C 150.369 192.791,150.369 188.831,150.298 186.478 C 150.228 184.125,150.170 186.160,150.170 191.000 M150.501 201.800 C 150.505 202.680,150.587 202.993,150.683 202.495 C 150.779 201.998,150.775 201.278,150.675 200.895 C 150.575 200.513,150.496 200.920,150.501 201.800 M153.256 217.200 C 153.256 217.530,153.411 218.160,153.600 218.600 C 153.817 219.104,153.944 219.178,153.944 218.800 C 153.944 218.470,153.789 217.840,153.600 217.400 C 153.383 216.896,153.256 216.822,153.256 217.200 M157.628 229.800 C 157.628 230.020,157.886 230.650,158.200 231.200 C 158.514 231.750,158.772 232.020,158.772 231.800 C 158.772 231.580,158.514 230.950,158.200 230.400 C 157.886 229.850,157.628 229.580,157.628 229.800 M159.228 233.400 C 159.228 233.620,159.486 234.250,159.800 234.800 C 160.114 235.350,160.372 235.620,160.372 235.400 C 160.372 235.180,160.114 234.550,159.800 234.000 C 159.486 233.450,159.228 233.180,159.228 233.400 M161.400 238.000 C 161.957 239.100,162.503 240.000,162.613 240.000 C 162.723 240.000,162.357 239.100,161.800 238.000 C 161.243 236.900,160.697 236.000,160.587 236.000 C 160.477 236.000,160.843 236.900,161.400 238.000 M169.600 251.200 C 170.070 251.860,170.544 252.400,170.654 252.400 C 170.764 252.400,170.470 251.860,170.000 251.200 C 169.530 250.540,169.056 250.000,168.946 250.000 C 168.836 250.000,169.130 250.540,169.600 251.200 M175.199 258.399 C 176.119 259.498,177.081 260.526,177.336 260.683 C 177.591 260.839,176.923 259.940,175.851 258.684 C 174.780 257.428,173.818 256.400,173.714 256.400 C 173.610 256.400,174.279 257.299,175.199 258.399 M180.400 264.200 C 181.817 265.630,183.067 266.800,183.177 266.800 C 183.287 266.800,182.217 265.630,180.800 264.200 C 179.383 262.770,178.133 261.600,178.023 261.600 C 177.913 261.600,178.983 262.770,180.400 264.200 M186.800 270.543 C 187.790 271.600,189.320 273.022,190.200 273.702 C 192.059 275.137,191.642 274.700,187.800 271.183 C 185.654 269.218,185.421 269.069,186.800 270.543 " stroke="none" fill="#54b056" fill-rule="evenodd"></path><path id="path2" d="M0.000 200.000 L 0.000 400.000 200.000 400.000 L 400.000 400.000 400.000 200.000 L 400.000 0.000 200.000 0.000 L 0.000 0.000 0.000 200.000 M228.000 34.151 C 250.124 36.074,270.956 39.310,291.005 43.939 C 316.517 49.828,323.547 52.661,331.673 60.325 C 341.972 70.038,347.036 81.377,347.993 96.870 C 348.215 100.461,348.570 105.920,348.782 109.000 C 349.877 124.913,350.062 129.793,350.082 143.400 C 350.109 160.939,349.284 172.006,346.773 187.800 C 345.742 194.278,342.327 209.592,341.019 213.600 C 340.480 215.250,339.593 218.130,339.047 220.000 C 335.505 232.128,326.437 253.124,320.197 263.644 C 319.429 264.940,318.137 267.125,317.327 268.500 C 302.978 292.847,276.805 321.018,253.210 337.513 C 251.774 338.516,249.700 340.011,248.600 340.835 C 236.798 349.677,203.193 367.361,199.550 366.646 C 196.334 366.015,179.422 357.923,169.600 352.315 C 136.930 333.663,108.038 306.852,87.579 276.200 C 85.670 273.340,83.075 269.200,81.811 267.000 C 80.548 264.800,79.369 262.820,79.192 262.600 C 78.458 261.689,70.706 245.787,68.468 240.600 C 60.130 221.278,54.176 198.316,51.614 175.600 C 51.155 171.530,50.695 167.660,50.591 167.000 C 49.564 160.437,49.668 132.255,50.780 116.000 C 52.892 85.127,55.245 76.114,63.991 65.411 C 72.465 55.040,80.253 50.898,100.400 46.045 C 114.987 42.532,118.915 41.651,123.800 40.796 C 126.440 40.334,130.850 39.526,133.600 38.999 C 139.794 37.813,148.843 36.604,165.000 34.801 C 179.904 33.139,212.492 32.802,228.000 34.151 M196.664 261.351 C 194.940 266.658,193.185 271.879,192.764 272.953 C 192.071 274.726,192.000 276.047,192.000 287.253 L 192.000 299.600 200.011 299.600 L 208.022 299.600 207.889 286.900 L 207.757 274.200 203.978 263.129 C 201.900 257.040,200.110 251.979,200.000 251.881 C 199.890 251.783,198.389 256.045,196.664 261.351 " stroke="none" fill="#f4f4f4" fill-rule="evenodd"></path><path id="path3" d="M195.921 33.499 C 198.188 33.570,201.788 33.570,203.921 33.498 C 206.055 33.426,204.200 33.368,199.800 33.368 C 195.400 33.368,193.655 33.427,195.921 33.499 M182.307 33.890 C 183.026 33.979,184.106 33.977,184.707 33.886 C 185.308 33.795,184.720 33.722,183.400 33.724 C 182.080 33.726,181.588 33.801,182.307 33.890 M215.091 33.889 C 215.801 33.977,217.061 33.979,217.891 33.892 C 218.721 33.805,218.140 33.733,216.600 33.731 C 215.060 33.729,214.381 33.800,215.091 33.889 M176.300 34.282 C 176.795 34.378,177.605 34.378,178.100 34.282 C 178.595 34.187,178.190 34.109,177.200 34.109 C 176.210 34.109,175.805 34.187,176.300 34.282 M221.705 34.287 C 222.314 34.379,223.214 34.377,223.705 34.282 C 224.197 34.187,223.700 34.111,222.600 34.114 C 221.500 34.117,221.097 34.195,221.705 34.287 M170.500 34.676 C 170.885 34.776,171.515 34.776,171.900 34.676 C 172.285 34.575,171.970 34.493,171.200 34.493 C 170.430 34.493,170.115 34.575,170.500 34.676 M228.100 34.676 C 228.485 34.776,229.115 34.776,229.500 34.676 C 229.885 34.575,229.570 34.493,228.800 34.493 C 228.030 34.493,227.715 34.575,228.100 34.676 M65.375 64.100 L 64.200 65.400 65.500 64.225 C 66.712 63.130,66.984 62.800,66.675 62.800 C 66.606 62.800,66.021 63.385,65.375 64.100 M194.165 89.300 C 188.787 94.758,185.144 98.828,182.763 102.039 C 182.013 103.050,180.663 104.850,179.763 106.039 C 154.335 139.609,144.139 184.335,154.045 218.860 C 158.019 232.710,165.158 245.832,175.399 258.108 C 180.930 264.738,191.243 274.990,191.744 274.357 C 191.812 274.270,193.636 268.852,195.797 262.315 C 197.958 255.779,199.833 250.497,199.963 250.577 C 200.093 250.658,200.154 213.211,200.098 167.362 C 200.042 121.513,199.860 84.000,199.693 84.000 C 199.526 84.000,197.038 86.385,194.165 89.300 M52.493 98.800 C 52.493 99.570,52.575 99.885,52.676 99.500 C 52.776 99.115,52.776 98.485,52.676 98.100 C 52.575 97.715,52.493 98.030,52.493 98.800 M51.301 111.800 C 51.305 112.680,51.387 112.993,51.483 112.495 C 51.579 111.998,51.575 111.278,51.475 110.895 C 51.375 110.513,51.296 110.920,51.301 111.800 M348.893 117.200 C 348.893 117.970,348.975 118.285,349.076 117.900 C 349.176 117.515,349.176 116.885,349.076 116.500 C 348.975 116.115,348.893 116.430,348.893 117.200 M349.320 124.400 C 349.320 125.610,349.395 126.105,349.487 125.500 C 349.578 124.895,349.578 123.905,349.487 123.300 C 349.395 122.695,349.320 123.190,349.320 124.400 M50.509 125.200 C 50.509 126.190,50.587 126.595,50.682 126.100 C 50.778 125.605,50.778 124.795,50.682 124.300 C 50.587 123.805,50.509 124.210,50.509 125.200 M349.777 143.000 C 349.777 149.380,349.832 151.934,349.899 148.676 C 349.967 145.417,349.966 140.197,349.899 137.076 C 349.831 133.954,349.776 136.620,349.777 143.000 M50.176 143.200 C 50.176 149.470,50.232 152.035,50.299 148.900 C 50.367 145.765,50.367 140.635,50.299 137.500 C 50.232 134.365,50.176 136.930,50.176 143.200 M50.520 161.200 C 50.520 162.410,50.595 162.905,50.687 162.300 C 50.778 161.695,50.778 160.705,50.687 160.100 C 50.595 159.495,50.520 159.990,50.520 161.200 M349.320 161.200 C 349.320 162.410,349.395 162.905,349.487 162.300 C 349.578 161.695,349.578 160.705,349.487 160.100 C 349.395 159.495,349.320 159.990,349.320 161.200 M110.383 304.900 C 112.041 306.666,112.400 306.984,112.400 306.683 C 112.400 306.619,111.545 305.764,110.500 304.783 L 108.600 303.000 110.383 304.900 M289.381 304.900 L 287.800 306.600 289.500 305.019 C 291.081 303.548,291.384 303.200,291.081 303.200 C 291.016 303.200,290.251 303.965,289.381 304.900 M282.975 311.700 L 281.800 313.000 283.100 311.825 C 283.815 311.179,284.400 310.594,284.400 310.525 C 284.400 310.216,284.070 310.488,282.975 311.700 M276.000 318.200 C 275.028 319.190,274.323 320.000,274.433 320.000 C 274.543 320.000,275.428 319.190,276.400 318.200 C 277.372 317.210,278.077 316.400,277.967 316.400 C 277.857 316.400,276.972 317.210,276.000 318.200 M123.800 318.400 C 124.659 319.280,125.452 320.000,125.562 320.000 C 125.672 320.000,125.059 319.280,124.200 318.400 C 123.341 317.520,122.548 316.800,122.438 316.800 C 122.328 316.800,122.941 317.520,123.800 318.400 M127.200 321.325 C 127.200 321.394,127.785 321.979,128.500 322.625 L 129.800 323.800 128.625 322.500 C 127.530 321.288,127.200 321.016,127.200 321.325 M271.375 322.500 L 270.200 323.800 271.500 322.625 C 272.712 321.530,272.984 321.200,272.675 321.200 C 272.606 321.200,272.021 321.785,271.375 322.500 M244.600 343.035 L 243.400 344.066 244.700 343.206 C 245.415 342.733,246.000 342.268,246.000 342.173 C 246.000 341.873,245.831 341.978,244.600 343.035 " stroke="none" fill="#8ac78f" fill-rule="evenodd"></path><path id="path4" d="M185.900 33.495 C 187.055 33.576,188.945 33.576,190.100 33.495 C 191.255 33.414,190.310 33.348,188.000 33.348 C 185.690 33.348,184.745 33.414,185.900 33.495 M209.715 33.496 C 210.988 33.576,212.968 33.575,214.115 33.494 C 215.262 33.414,214.220 33.349,211.800 33.350 C 209.380 33.351,208.442 33.416,209.715 33.496 M178.505 33.887 C 179.114 33.979,180.014 33.977,180.505 33.882 C 180.997 33.787,180.500 33.711,179.400 33.714 C 178.300 33.717,177.897 33.795,178.505 33.887 M219.900 33.882 C 220.395 33.978,221.205 33.978,221.700 33.882 C 222.195 33.787,221.790 33.709,220.800 33.709 C 219.810 33.709,219.405 33.787,219.900 33.882 M172.905 34.287 C 173.514 34.379,174.414 34.377,174.905 34.282 C 175.397 34.187,174.900 34.111,173.800 34.114 C 172.700 34.117,172.297 34.195,172.905 34.287 M225.305 34.287 C 225.914 34.379,226.814 34.377,227.305 34.282 C 227.797 34.187,227.300 34.111,226.200 34.114 C 225.100 34.117,224.697 34.195,225.305 34.287 M167.305 34.687 C 167.914 34.779,168.814 34.777,169.305 34.682 C 169.797 34.587,169.300 34.511,168.200 34.514 C 167.100 34.517,166.697 34.595,167.305 34.687 M230.905 34.687 C 231.514 34.779,232.414 34.777,232.905 34.682 C 233.397 34.587,232.900 34.511,231.800 34.514 C 230.700 34.517,230.297 34.595,230.905 34.687 M163.505 35.083 C 164.002 35.179,164.722 35.175,165.105 35.075 C 165.487 34.975,165.080 34.896,164.200 34.901 C 163.320 34.905,163.007 34.987,163.505 35.083 M234.705 35.083 C 235.202 35.179,235.922 35.175,236.305 35.075 C 236.687 34.975,236.280 34.896,235.400 34.901 C 234.520 34.905,234.207 34.987,234.705 35.083 M140.900 37.876 C 141.285 37.976,141.915 37.976,142.300 37.876 C 142.685 37.775,142.370 37.693,141.600 37.693 C 140.830 37.693,140.515 37.775,140.900 37.876 M257.700 37.876 C 258.085 37.976,258.715 37.976,259.100 37.876 C 259.485 37.775,259.170 37.693,258.400 37.693 C 257.630 37.693,257.315 37.775,257.700 37.876 M67.600 61.400 C 65.961 63.050,64.710 64.400,64.820 64.400 C 64.930 64.400,66.361 63.050,68.000 61.400 C 69.639 59.750,70.890 58.400,70.780 58.400 C 70.670 58.400,69.239 59.750,67.600 61.400 M329.600 58.510 C 329.600 58.571,330.995 59.966,332.700 61.610 L 335.800 64.600 332.810 61.500 C 330.033 58.621,329.600 58.217,329.600 58.510 M344.863 80.600 C 344.862 80.820,345.103 81.630,345.400 82.400 C 345.697 83.170,345.945 83.530,345.952 83.200 C 345.958 82.870,345.717 82.060,345.414 81.400 C 345.112 80.740,344.864 80.380,344.863 80.600 M347.701 94.600 C 347.705 95.480,347.787 95.793,347.883 95.295 C 347.979 94.798,347.975 94.078,347.875 93.695 C 347.775 93.313,347.696 93.720,347.701 94.600 M52.093 100.800 C 52.093 101.570,52.175 101.885,52.276 101.500 C 52.376 101.115,52.376 100.485,52.276 100.100 C 52.175 99.715,52.093 100.030,52.093 100.800 M348.093 101.600 C 348.093 102.370,348.175 102.685,348.276 102.300 C 348.376 101.915,348.376 101.285,348.276 100.900 C 348.175 100.515,348.093 100.830,348.093 101.600 M348.501 107.400 C 348.505 108.280,348.587 108.593,348.683 108.095 C 348.779 107.598,348.775 106.878,348.675 106.495 C 348.575 106.113,348.496 106.520,348.501 107.400 M51.301 109.000 C 51.305 109.880,51.387 110.193,51.483 109.695 C 51.579 109.198,51.575 108.478,51.475 108.095 C 51.375 107.713,51.296 108.120,51.301 109.000 M348.928 113.600 C 348.928 115.030,349.001 115.615,349.089 114.900 C 349.178 114.185,349.178 113.015,349.089 112.300 C 349.001 111.585,348.928 112.170,348.928 113.600 M50.914 115.000 C 50.917 116.100,50.995 116.503,51.087 115.895 C 51.179 115.286,51.177 114.386,51.082 113.895 C 50.987 113.403,50.911 113.900,50.914 115.000 M349.301 121.000 C 349.305 121.880,349.387 122.193,349.483 121.695 C 349.579 121.198,349.575 120.478,349.475 120.095 C 349.375 119.713,349.296 120.120,349.301 121.000 M50.514 121.800 C 50.517 122.900,50.595 123.303,50.687 122.695 C 50.779 122.086,50.777 121.186,50.682 120.695 C 50.587 120.203,50.511 120.700,50.514 121.800 M349.742 128.200 C 349.741 130.180,349.808 131.040,349.892 130.112 C 349.976 129.184,349.977 127.564,349.895 126.512 C 349.812 125.460,349.743 126.220,349.742 128.200 M50.142 128.600 C 50.141 130.580,50.208 131.440,50.292 130.512 C 50.376 129.584,50.377 127.964,50.295 126.912 C 50.212 125.860,50.143 126.620,50.142 128.600 M49.753 146.600 C 49.753 149.240,49.818 150.268,49.897 148.884 C 49.975 147.501,49.974 145.341,49.895 144.084 C 49.816 142.828,49.752 143.960,49.753 146.600 M350.153 146.600 C 350.153 149.240,350.218 150.268,350.297 148.884 C 350.375 147.501,350.374 145.341,350.295 144.084 C 350.216 142.828,350.152 143.960,350.153 146.600 M50.140 157.600 C 50.140 159.470,50.209 160.235,50.293 159.300 C 50.377 158.365,50.377 156.835,50.293 155.900 C 50.209 154.965,50.140 155.730,50.140 157.600 M349.740 157.600 C 349.740 159.470,349.809 160.235,349.893 159.300 C 349.977 158.365,349.977 156.835,349.893 155.900 C 349.809 154.965,349.740 155.730,349.740 157.600 M50.520 165.200 C 50.520 166.410,50.595 166.905,50.687 166.300 C 50.778 165.695,50.778 164.705,50.687 164.100 C 50.595 163.495,50.520 163.990,50.520 165.200 M349.052 166.353 C 348.898 168.197,348.852 169.785,348.949 169.883 C 349.200 170.133,349.726 164.177,349.510 163.532 C 349.412 163.239,349.206 164.509,349.052 166.353 M50.893 168.800 C 50.893 169.570,50.975 169.885,51.076 169.500 C 51.176 169.115,51.176 168.485,51.076 168.100 C 50.975 167.715,50.893 168.030,50.893 168.800 M54.480 194.600 C 54.480 195.040,54.624 195.850,54.800 196.400 C 55.054 197.192,55.120 197.233,55.120 196.600 C 55.120 196.160,54.976 195.350,54.800 194.800 C 54.546 194.008,54.480 193.967,54.480 194.600 M345.022 195.422 C 344.872 196.225,344.828 196.962,344.926 197.060 C 345.024 197.157,345.227 196.581,345.378 195.778 C 345.528 194.975,345.572 194.238,345.474 194.140 C 345.376 194.043,345.173 194.619,345.022 195.422 M58.056 210.400 C 58.056 210.730,58.211 211.360,58.400 211.800 C 58.617 212.304,58.744 212.378,58.744 212.000 C 58.744 211.670,58.589 211.040,58.400 210.600 C 58.183 210.096,58.056 210.022,58.056 210.400 M341.429 211.029 C 341.281 211.615,341.238 212.172,341.332 212.266 C 341.427 212.360,341.624 211.958,341.771 211.371 C 341.919 210.785,341.962 210.228,341.868 210.134 C 341.773 210.040,341.576 210.442,341.429 211.029 M195.660 262.690 L 191.580 275.000 191.690 287.400 L 191.800 299.800 200.000 299.800 L 208.200 299.800 208.209 287.300 L 208.217 274.800 208.103 287.200 L 207.989 299.600 199.994 299.600 L 192.000 299.600 192.000 287.253 C 192.000 276.053,192.071 274.725,192.763 272.953 C 193.183 271.879,194.974 266.596,196.743 261.214 C 198.512 255.831,200.058 251.691,200.180 252.014 C 200.302 252.336,201.940 257.266,203.820 262.970 C 205.700 268.673,207.423 273.623,207.649 273.970 C 207.984 274.483,208.029 274.489,207.889 274.000 C 207.138 271.369,200.239 250.932,200.020 250.690 C 199.866 250.519,197.904 255.919,195.660 262.690 M78.600 261.600 C 78.941 262.260,79.311 262.800,79.421 262.800 C 79.531 262.800,79.341 262.260,79.000 261.600 C 78.659 260.940,78.289 260.400,78.179 260.400 C 78.069 260.400,78.259 260.940,78.600 261.600 M321.000 261.600 C 320.659 262.260,320.469 262.800,320.579 262.800 C 320.689 262.800,321.059 262.260,321.400 261.600 C 321.741 260.940,321.931 260.400,321.821 260.400 C 321.711 260.400,321.341 260.940,321.000 261.600 M317.952 266.900 C 317.690 267.395,317.215 268.250,316.896 268.800 C 316.339 269.759,316.343 269.767,316.988 269.000 C 317.786 268.052,318.905 266.000,318.624 266.000 C 318.516 266.000,318.214 266.405,317.952 266.900 M309.785 279.700 C 309.168 280.635,308.920 281.189,309.232 280.931 C 309.833 280.434,311.364 278.000,311.076 278.000 C 310.983 278.000,310.402 278.765,309.785 279.700 M106.400 300.925 C 106.400 300.994,106.985 301.579,107.700 302.225 L 109.000 303.400 107.825 302.100 C 106.730 300.888,106.400 300.616,106.400 300.925 M112.600 307.600 C 114.128 309.140,115.469 310.400,115.579 310.400 C 115.689 310.400,114.528 309.140,113.000 307.600 C 111.472 306.060,110.131 304.800,110.021 304.800 C 109.911 304.800,111.072 306.060,112.600 307.600 M286.989 307.700 L 284.200 310.600 287.100 307.811 C 289.794 305.220,290.183 304.800,289.889 304.800 C 289.828 304.800,288.523 306.105,286.989 307.700 M121.400 316.400 C 123.371 318.380,125.073 320.000,125.183 320.000 C 125.293 320.000,123.771 318.380,121.800 316.400 C 119.829 314.420,118.127 312.800,118.017 312.800 C 117.907 312.800,119.429 314.420,121.400 316.400 M278.192 316.500 L 274.600 320.200 278.300 316.608 C 281.736 313.272,282.182 312.800,281.892 312.800 C 281.832 312.800,280.167 314.465,278.192 316.500 M126.800 321.400 C 127.546 322.170,128.247 322.800,128.357 322.800 C 128.467 322.800,127.946 322.170,127.200 321.400 C 126.454 320.630,125.753 320.000,125.643 320.000 C 125.533 320.000,126.054 320.630,126.800 321.400 M272.778 321.500 L 271.400 323.000 272.900 321.622 C 274.296 320.338,274.584 320.000,274.278 320.000 C 274.212 320.000,273.537 320.675,272.778 321.500 M132.000 325.725 C 132.000 325.794,132.585 326.379,133.300 327.025 L 134.600 328.200 133.425 326.900 C 132.330 325.688,132.000 325.416,132.000 325.725 M266.575 326.900 L 265.400 328.200 266.700 327.025 C 267.415 326.379,268.000 325.794,268.000 325.725 C 268.000 325.416,267.670 325.688,266.575 326.900 M151.200 340.546 C 151.200 340.656,151.740 341.130,152.400 341.600 C 153.060 342.070,153.600 342.364,153.600 342.254 C 153.600 342.144,153.060 341.670,152.400 341.200 C 151.740 340.730,151.200 340.436,151.200 340.546 M246.900 341.640 C 245.965 342.302,245.200 342.933,245.200 343.041 C 245.200 343.150,246.010 342.681,247.000 342.000 C 247.990 341.319,248.800 340.680,248.800 340.581 C 248.800 340.305,248.724 340.348,246.900 341.640 M157.174 344.724 C 157.709 345.159,158.699 345.819,159.374 346.191 L 160.600 346.867 159.626 346.076 C 159.091 345.641,158.101 344.981,157.426 344.609 L 156.200 343.933 157.174 344.724 M242.100 344.846 C 240.737 345.719,240.295 346.306,241.500 345.643 C 242.418 345.139,243.856 344.027,243.600 344.019 C 243.490 344.016,242.815 344.388,242.100 344.846 M235.700 348.846 C 234.337 349.719,233.895 350.306,235.100 349.643 C 236.018 349.139,237.456 348.027,237.200 348.019 C 237.090 348.016,236.415 348.388,235.700 348.846 M220.300 357.429 C 218.805 358.240,218.896 358.578,220.400 357.800 C 221.060 357.459,221.600 357.094,221.600 356.990 C 221.600 356.732,221.557 356.747,220.300 357.429 M186.400 360.996 C 186.400 361.270,188.849 362.484,189.032 362.301 C 189.119 362.214,188.562 361.844,187.795 361.478 C 187.028 361.112,186.400 360.895,186.400 360.996 M211.600 361.800 C 210.610 362.330,209.942 362.772,210.116 362.782 C 210.541 362.806,213.600 361.234,213.600 360.992 C 213.600 360.727,213.617 360.720,211.600 361.800 " stroke="none" fill="#a8cea6" fill-rule="evenodd"></path></g></svg>